<?xml version="1.0" encoding="UTF-8" standalone="no"?>
<!DOCTYPE svg PUBLIC "-//W3C//DTD SVG 1.1//EN" "http://www.w3.org/Graphics/SVG/1.1/DTD/svg11.dtd">
<svg width="100%" height="100%" viewBox="0 0 1280 800" version="1.1" xmlns="http://www.w3.org/2000/svg" xmlns:xlink="http://www.w3.org/1999/xlink" xml:space="preserve" xmlns:serif="http://www.serif.com/" style="fill-rule:evenodd;clip-rule:evenodd;stroke-linejoin:round;stroke-miterlimit:1.41421;">
    <g transform="matrix(1.01204,0,0,0.99869,-12.0092,-0.0356444)">
        <path d="M772.193,158.122C772.835,123.38 759.363,110.417 750.976,107.576L578.682,58.836C547.903,53.855 532.027,73.741 531.609,119.062L531.609,681.163C531.609,714.435 539.295,742.734 572.274,742.734L735.528,741.395C765.35,741.815 771.75,717.857 771.873,690.055L772.193,158.122Z" style="fill:rgb(185,185,185);"/>
    </g>
    <g transform="matrix(0.966137,0,0,1.08192,23.0986,-58.9634)">
        <ellipse cx="665.255" cy="700.143" rx="16.865" ry="20.794" style="fill:rgb(53,53,53);fill-opacity:0.654902;"/>
    </g>
    <g transform="matrix(1.5482,0,0,1.1892,-365.164,-134.651)">
        <ellipse cx="665.927" cy="700.625" rx="9.164" ry="16.638" style="fill:rgb(183,178,178);"/>
    </g>
    <g transform="matrix(1.20605,0,0,1,-109.481,0)">
        <path d="M536.275,203.205C536.275,201.556 535.165,200.217 533.798,200.217C532.43,200.217 531.32,201.556 531.32,203.205L531.32,241.55C531.32,243.199 532.43,244.538 533.798,244.538C535.165,244.538 536.275,243.199 536.275,241.55L536.275,203.205Z" style="fill:rgb(235,235,235);"/>
    </g>
    <path d="M760.368,181.647L556.528,133.384L556.304,658.974L760.55,665.222L760.368,181.647Z" style="fill:rgb(235,235,235);"/>
    <g transform="matrix(1.08371,-0.168104,0.168594,1.08687,-71.7579,95.3301)">
        <ellipse cx="626.406" cy="114.697" rx="3.25" ry="4.789" style="fill:rgb(49,49,49);"/>
    </g>
    <g transform="matrix(1.04287,0.269852,-0.123157,0.475949,-14.1207,-114.07)">
        <path d="M682.03,122.737C682.03,119.537 680.844,116.938 679.384,116.938L649.941,116.938C648.481,116.938 647.295,119.537 647.295,122.737C647.295,125.938 648.481,128.536 649.941,128.536L679.384,128.536C680.844,128.536 682.03,125.938 682.03,122.737Z" style="fill:rgb(52,52,52);"/>
    </g>
    <g transform="matrix(1.20605,0,0,1,-109.481,0)">
        <path d="M536.275,258.677C536.275,257.028 535.165,255.689 533.798,255.689C532.43,255.689 531.32,257.028 531.32,258.677L531.32,296.024C531.32,297.673 532.43,299.012 533.798,299.012C535.165,299.012 536.275,297.673 536.275,296.024L536.275,258.677Z" style="fill:rgb(235,235,235);"/>
    </g>
    <g transform="matrix(1,0,0,1,-1.27848,-0.0556991)">
        <path d="M537.553,140.846C537.553,139.479 536.443,138.369 535.076,138.369C533.709,138.369 532.599,139.479 532.599,140.846L532.599,160.91C532.599,162.278 533.709,163.388 535.076,163.388C536.443,163.388 537.553,162.278 537.553,160.91L537.553,140.846Z" style="fill:rgb(235,235,235);"/>
    </g>
</svg>
