<?xml version="1.0" encoding="UTF-8" standalone="no"?><!DOCTYPE svg PUBLIC "-//W3C//DTD SVG 1.1//EN" "http://www.w3.org/Graphics/SVG/1.1/DTD/svg11.dtd"><svg width="100%" height="100%" viewBox="0 0 1280 800" version="1.1" xmlns="http://www.w3.org/2000/svg" xmlns:xlink="http://www.w3.org/1999/xlink" xml:space="preserve" xmlns:serif="http://www.serif.com/" style="fill-rule:evenodd;clip-rule:evenodd;stroke-linejoin:round;stroke-miterlimit:1.41421;"><path d="M1280,778.764l-1280,0c0,0 0,3.209 0,7.132c0,3.741 1.486,7.328 4.131,9.973c2.645,2.645 6.232,4.131 9.973,4.131c130.243,0 1121.55,0 1251.79,0c3.741,0 7.328,-1.486 9.973,-4.131c2.645,-2.645 4.131,-6.232 4.131,-9.973c0,-3.923 0,-7.132 0,-7.132Z" style="fill:url(#_Linear1);"/><rect x="0" y="753.775" width="1280" height="24.989" style="fill:#fff;"/><path d="M1159.61,94.143c0,-20.02 -16.253,-36.273 -36.273,-36.273l-966.624,0c-20.02,0 -36.274,16.253 -36.274,36.273l0,623.19c0,10.425 -0.057,36.442 -0.057,36.442c0,0 26.737,-0.169 36.331,-0.169l966.624,0c10.528,0 36.287,0.119 36.287,0.119c0,0 -0.014,-26.9 -0.014,-36.392l0,-623.19Z"/><path d="M729.723,753.775l-180.07,0c0,0 0,7.215 0,12.795c0,1.694 0.672,3.318 1.87,4.516c1.198,1.197 2.822,1.87 4.515,1.87c27.962,0 139.45,0 167.337,0c3.506,0 6.348,-2.842 6.348,-6.348c0,-5.585 0,-12.833 0,-12.833Z" style="fill:url(#_Linear2);"/><rect x="154.139" y="104.757" width="971.097" height="619.549" style="fill:#282828;"/><defs><linearGradient id="_Linear1" x1="0" y1="0" x2="1" y2="0" gradientUnits="userSpaceOnUse" gradientTransform="matrix(1.30034e-15,21.2362,-21.2362,1.30034e-15,639.688,778.764)"><stop offset="0" style="stop-color:#fff;stop-opacity:1"/><stop offset="1" style="stop-color:#b3b3b3;stop-opacity:1"/></linearGradient><linearGradient id="_Linear2" x1="0" y1="0" x2="1" y2="0" gradientUnits="userSpaceOnUse" gradientTransform="matrix(-180.071,2.20523e-14,-2.20523e-14,-180.071,729.723,766.269)"><stop offset="0" style="stop-color:#cacaca;stop-opacity:1"/><stop offset="0.23" style="stop-color:#fff;stop-opacity:1"/><stop offset="0.76" style="stop-color:#fff;stop-opacity:1"/><stop offset="1" style="stop-color:#aaa;stop-opacity:1"/></linearGradient></defs></svg>