<?xml version="1.0" encoding="UTF-8" standalone="no"?>
<!DOCTYPE svg PUBLIC "-//W3C//DTD SVG 1.1//EN" "http://www.w3.org/Graphics/SVG/1.1/DTD/svg11.dtd">
<svg width="100%" height="100%" viewBox="0 0 1280 800" version="1.1" xmlns="http://www.w3.org/2000/svg" xmlns:xlink="http://www.w3.org/1999/xlink" xml:space="preserve" xmlns:serif="http://www.serif.com/" style="fill-rule:evenodd;clip-rule:evenodd;stroke-linecap:round;stroke-linejoin:round;stroke-miterlimit:1.5;">
    <g transform="matrix(1.15585,0,0,0.700242,-592.266,199.894)">
        <path d="M1059.5,263.496L1004.62,263.496C1031.27,263.496 1057.87,249.452 1080.18,236.242C1088.71,231.185 1097.34,226.666 1105.49,221.004C1108.91,218.63 1108.6,219.278 1112.2,217.271C1113.68,216.445 1118.28,214.695 1116.59,214.695C1112.02,214.695 1083.28,239.893 1078.92,243.47C1045.12,271.254 1010.54,298.676 973.313,321.678C955.137,332.909 936.746,344.122 916.938,352.23C910.629,354.813 904.035,357.78 897.353,359.089C896.029,359.348 892.837,361.297 893.429,360.085C897.818,351.104 1007.43,312.184 1018.46,308.212C1093.55,281.178 1169.17,249.085 1238.87,211.057" style="fill:none;stroke:rgb(255,255,252);stroke-width:6.8px;"/>
    </g>
</svg>
